<svg width="200" height="90" viewBox="0 0 200 90" class="css-1j8o68f"><defs id="SvgjsDefs1087"></defs><g id="SvgjsG1088" featurekey="nameContainer" transform="matrix(1,0,0,1,0,0)" fill="#1989ac"><rect y="0" height="1" width="1" opacity="0"></rect><rect y="85" width="200" height="5"></rect></g><g id="SvgjsG1089" featurekey="nameFeature-0" transform="matrix(1.9767428971170564,0,0,1.9767428971170564,-1.796958224317156,-6.625329159921218)" fill="#111111"><path d="M1.5775 12.780999999999999 l-0.66845 -0.82888 l10.508 0 l0 4.2246 l-7.246 0 l1.0963 0.82888 l0 6.8449 l4.3048 0 l0 4.2246 l-5.4011 0 l1.0963 0.82888 l0 11.043 l-3.6898 0 l0 -27.166 z M15.77536310160428 35.8021 l4.3316 0 l0 -19.545 l-5.4011 0 l1.0695 0.82888 l0 18.717 z M23.76966310160428 14.678999999999998 l0 22.701 c0 1.4973 -1.1497 2.6471 -2.6471 2.6471 l-6.3636 0 c-1.4973 0 -2.6471 -1.1497 -2.6471 -2.6471 l0 -22.701 c0 -1.4171 1.1497 -2.6471 2.6471 -2.6471 l6.3636 0 c1.4973 0 2.6471 1.2299 2.6471 2.6471 z M24.73261550802139 12.032 l4.3583 0 l0 23.77 l6.1497 0 l0 4.2246 l-9.8396 0 l0 -0.026738 l0 -4.1979 l0 -22.968 z M39.518691443850265 39.946524 l-3.6898 0 l0 -27.166 l-0.66845 -0.82888 l4.3583 0 l0 27.995 z M44.78605828877005 35.8021 l4.3316 0 l0 -19.545 l-5.4011 0 l1.0695 0.82888 l0 18.717 z M52.78035828877005 14.678999999999998 l0 22.701 c0 1.4973 -1.1497 2.6471 -2.6471 2.6471 l-6.3636 0 c-1.4973 0 -2.6471 -1.1497 -2.6471 -2.6471 l0 -22.701 c0 -1.4171 1.1497 -2.6471 2.6471 -2.6471 l6.3636 0 c1.4973 0 2.6471 1.2299 2.6471 2.6471 z M53.74327914438502 12.032 l6.1765 0 l2.4866 9.4385 l2.5134 -9.4385 l5.508 0 l-0.026738 27.995 l-3.6631 0 l0 -20.535 l-4.3316 16.257 l0 0.026738 l0 -0.026738 l0 0.026738 l0 -0.026738 l-4.3048 -16.257 l0 20.535 l-3.6898 0 l0 -27.193 z M76.2833973262032 39.946524 l-3.6898 0 l0 -27.166 l-0.66845 -0.82888 l4.3583 0 l0 27.995 z M77.78075026737967 12.004999999999999 l5.2406 0 l3.4225 15.267 l0 -15.241 l3.6631 0 l0 27.968 l-4.5722 0 l-3.3957 -15.187 l0 15.214 l-3.6898 0 l0 -27.193 z M92.24594545454545 12.861 l-0.66845 -0.82888 l10.508 0 l0 4.2246 l-7.246 0 l1.0963 0.82888 l0 6.8182 l4.3316 0 l0 4.2513 l-5.4278 0 l1.0963 0.80214 l0 6.8449 l6.1497 0 l0 4.2246 l-9.8396 0 l0 -4.2246 l0 -7.6471 l0 -4.2513 l0 -11.043 z"></path></g></svg>